# xmcd
#
# Track frame offsets: 
#        150
#        20817
#        41981
#        63276
#        84743
#        100790
#        121850
#        142176
#        157594
#        173021
#        190823
#        210657
#        229279
#        252364
#        272207
#        291290
#        313168
#
# Disc length: 4373 seconds
#
# Revision: 11
# Processed by: cddbd v1.5.2PL0 Copyright (c) Steve Scherf et al.
# Submitted via: ExactAudioCopy v0.95b4
#
DISCID=fa111311
DTITLE=許\志安 - 驚喜交集17首
DYEAR=1996
DGENRE=Pop
TTITLE0=男人最痛
TTITLE1=喜歡妳是妳
TTITLE2=心血
TTITLE3=想說
TTITLE4=荒廢的樂園
TTITLE5=從沒這麼愛戀過
TTITLE6=我心中有你
TTITLE7=迷糊、情慾、對象
TTITLE8=用愛做世界
TTITLE9=雨天晴天
TTITLE10=雨後陽光
TTITLE11=向全世界說愛你
TTITLE12=讓我待你好一點
TTITLE13=祇要你親口道別
TTITLE14=唯獨你是不可取替
TTITLE15=從你祝福中離開
TTITLE16=戀愛片段
EXTD=YEAR: 1996
EXTT0=
EXTT1=
EXTT2=
EXTT3=
EXTT4=
EXTT5=
EXTT6=
EXTT7=
EXTT8=
EXTT9=
EXTT10=
EXTT11=
EXTT12=
EXTT13=
EXTT14=
EXTT15=
EXTT16=
PLAYORDER=
